<?xml version="1.0" encoding="UTF-8" standalone="no"?>
<!DOCTYPE svg PUBLIC "-//W3C//DTD SVG 1.1//EN"
 "http://www.w3.org/Graphics/SVG/1.1/DTD/svg11.dtd">
<!-- Generated by graphviz version 2.40.1 (20161225.0304)
 -->
<!-- Title: %3 Pages: 1 -->
<svg width="767pt" height="1359pt"
 viewBox="0.00 0.00 766.73 1358.84" xmlns="http://www.w3.org/2000/svg" xmlns:xlink="http://www.w3.org/1999/xlink">
<g id="graph0" class="graph" transform="scale(1 1) rotate(0) translate(4 1354.8398)">
<title>%3</title>
<polygon fill="#ffffff" stroke="transparent" points="-4,4 -4,-1354.8398 762.7297,-1354.8398 762.7297,4 -4,4"/>
<!-- user -->
<g id="node1" class="node">
<title>user</title>
<polygon fill="none" stroke="#000000" points="512.6465,-1350.8398 458.6465,-1350.8398 458.6465,-1314.8398 512.6465,-1314.8398 512.6465,-1350.8398"/>
<text text-anchor="middle" x="485.6465" y="-1329.1398" font-family="Times,serif" font-size="14.00" fill="#000000">user</text>
</g>
<!-- password -->
<g id="node2" class="node">
<title>password</title>
<ellipse fill="none" stroke="#000000" cx="532.6465" cy="-1260.8398" rx="44.393" ry="18"/>
<text text-anchor="middle" x="532.6465" y="-1257.1398" font-family="Times,serif" font-size="14.00" fill="#000000">password</text>
</g>
<!-- user&#45;&gt;password -->
<g id="edge1" class="edge">
<title>user&#45;&gt;password</title>
<path fill="none" stroke="#000000" d="M497.5066,-1314.6711C503.0295,-1306.2104 509.7,-1295.9918 515.7386,-1286.7411"/>
<polygon fill="#000000" stroke="#000000" points="518.7411,-1288.5445 521.2766,-1278.2575 512.8795,-1284.7181 518.7411,-1288.5445"/>
</g>
<!-- email -->
<g id="node3" class="node">
<title>email</title>
<ellipse fill="none" stroke="#000000" cx="439.6465" cy="-1260.8398" rx="30.5947" ry="18"/>
<text text-anchor="middle" x="439.6465" y="-1257.1398" font-family="Times,serif" font-size="14.00" fill="#000000">email</text>
</g>
<!-- user&#45;&gt;email -->
<g id="edge2" class="edge">
<title>user&#45;&gt;email</title>
<path fill="none" stroke="#000000" d="M474.0387,-1314.6711C468.5526,-1306.0842 461.9096,-1295.6864 455.9304,-1286.3276"/>
<polygon fill="#000000" stroke="#000000" points="458.7939,-1284.3086 450.4605,-1277.766 452.895,-1288.0774 458.7939,-1284.3086"/>
</g>
<!-- clientStretch -->
<g id="node4" class="node">
<title>clientStretch</title>
<polygon fill="none" stroke="#000000" points="559.6465,-1206.8398 505.6465,-1206.8398 505.6465,-1168.8398 559.6465,-1168.8398 559.6465,-1206.8398"/>
<text text-anchor="middle" x="532.6465" y="-1191.6398" font-family="Times,serif" font-size="14.00" fill="#000000">client</text>
<text text-anchor="middle" x="532.6465" y="-1176.6398" font-family="Times,serif" font-size="14.00" fill="#000000">stretch</text>
</g>
<!-- password&#45;&gt;clientStretch -->
<g id="edge3" class="edge">
<title>password&#45;&gt;clientStretch</title>
<path fill="none" stroke="#000000" d="M532.6465,-1242.7948C532.6465,-1235.0505 532.6465,-1225.8019 532.6465,-1217.1209"/>
<polygon fill="#000000" stroke="#000000" points="536.1466,-1216.9526 532.6465,-1206.9526 529.1466,-1216.9526 536.1466,-1216.9526"/>
</g>
<!-- email&#45;&gt;clientStretch -->
<g id="edge4" class="edge">
<title>email&#45;&gt;clientStretch</title>
<path fill="none" stroke="#000000" d="M458.0203,-1246.4173C470.0565,-1236.9695 486.12,-1224.3606 500.26,-1213.2614"/>
<polygon fill="#000000" stroke="#000000" points="502.6131,-1215.8639 508.3181,-1206.9362 498.2909,-1210.3576 502.6131,-1215.8639"/>
</g>
<!-- serverDatabase -->
<g id="node31" class="node">
<title>serverDatabase</title>
<path fill="none" stroke="#000000" d="M406.1465,-562.0743C406.1465,-564.7078 392.0277,-566.8471 374.6465,-566.8471 357.2653,-566.8471 343.1465,-564.7078 343.1465,-562.0743 343.1465,-562.0743 343.1465,-519.1187 343.1465,-519.1187 343.1465,-516.4852 357.2653,-514.3459 374.6465,-514.3459 392.0277,-514.3459 406.1465,-516.4852 406.1465,-519.1187 406.1465,-519.1187 406.1465,-562.0743 406.1465,-562.0743"/>
<path fill="none" stroke="#000000" d="M406.1465,-562.0743C406.1465,-559.4407 392.0277,-557.3014 374.6465,-557.3014 357.2653,-557.3014 343.1465,-559.4407 343.1465,-562.0743"/>
<text text-anchor="middle" x="374.6465" y="-544.3965" font-family="Times,serif" font-size="14.00" fill="#000000">server</text>
<text text-anchor="middle" x="374.6465" y="-529.3965" font-family="Times,serif" font-size="14.00" fill="#000000">database</text>
</g>
<!-- email&#45;&gt;serverDatabase -->
<g id="edge37" class="edge">
<title>email&#45;&gt;serverDatabase</title>
<path fill="none" stroke="#000000" d="M436.9735,-1242.8397C429.9476,-1196.732 409.6264,-1070.7869 382.6465,-968.1463 378.3589,-951.8349 374.891,-948.469 370.6465,-932.1463 358.0158,-883.5736 354.3336,-871.1617 349.6465,-821.193 341.0495,-729.5421 334.6193,-704.8916 349.6465,-614.0732 351.7258,-601.5064 355.6784,-588.2016 359.8372,-576.4174"/>
<polygon fill="#000000" stroke="#000000" points="363.1614,-577.5191 363.3426,-566.9258 356.5949,-575.094 363.1614,-577.5191"/>
</g>
<!-- clientStretchedPassword -->
<g id="node5" class="node">
<title>clientStretchedPassword</title>
<ellipse fill="none" stroke="#000000" cx="533.6465" cy="-1095.3631" rx="48.1667" ry="37.4533"/>
<text text-anchor="middle" x="533.6465" y="-1106.6631" font-family="Times,serif" font-size="14.00" fill="#000000">client</text>
<text text-anchor="middle" x="533.6465" y="-1091.6631" font-family="Times,serif" font-size="14.00" fill="#000000">stretched</text>
<text text-anchor="middle" x="533.6465" y="-1076.6631" font-family="Times,serif" font-size="14.00" fill="#000000">password</text>
</g>
<!-- clientStretch&#45;&gt;clientStretchedPassword -->
<g id="edge5" class="edge">
<title>clientStretch&#45;&gt;clientStretchedPassword</title>
<path fill="none" stroke="#000000" d="M532.8537,-1168.6785C532.9343,-1161.2215 533.0306,-1152.3138 533.1279,-1143.3192"/>
<polygon fill="#000000" stroke="#000000" points="536.6289,-1143.2372 533.2373,-1133.1999 529.6293,-1143.1615 536.6289,-1143.2372"/>
</g>
<!-- authenticationToken -->
<g id="node6" class="node">
<title>authenticationToken</title>
<ellipse fill="none" stroke="#000000" cx="533.6465" cy="-995.0164" rx="65.5227" ry="26.7407"/>
<text text-anchor="middle" x="533.6465" y="-998.8164" font-family="Times,serif" font-size="14.00" fill="#000000">authentication</text>
<text text-anchor="middle" x="533.6465" y="-983.8164" font-family="Times,serif" font-size="14.00" fill="#000000">token</text>
</g>
<!-- clientStretchedPassword&#45;&gt;authenticationToken -->
<g id="edge6" class="edge">
<title>clientStretchedPassword&#45;&gt;authenticationToken</title>
<path fill="none" stroke="#000000" d="M533.6465,-1057.7122C533.6465,-1049.3442 533.6465,-1040.4797 533.6465,-1032.1333"/>
<polygon fill="#000000" stroke="#000000" points="537.1466,-1031.9146 533.6465,-1021.9147 530.1466,-1031.9147 537.1466,-1031.9146"/>
</g>
<!-- clientWrappingKey -->
<g id="node28" class="node">
<title>clientWrappingKey</title>
<ellipse fill="none" stroke="#000000" cx="710.6465" cy="-894.6697" rx="48.1667" ry="37.4533"/>
<text text-anchor="middle" x="710.6465" y="-905.9697" font-family="Times,serif" font-size="14.00" fill="#000000">client</text>
<text text-anchor="middle" x="710.6465" y="-890.9697" font-family="Times,serif" font-size="14.00" fill="#000000">wrapping</text>
<text text-anchor="middle" x="710.6465" y="-875.9697" font-family="Times,serif" font-size="14.00" fill="#000000">key</text>
</g>
<!-- clientStretchedPassword&#45;&gt;clientWrappingKey -->
<g id="edge33" class="edge">
<title>clientStretchedPassword&#45;&gt;clientWrappingKey</title>
<path fill="none" stroke="#000000" d="M564.7677,-1066.4903C578.5895,-1053.2619 594.8225,-1037.1563 608.6465,-1021.8864 633.9334,-993.9547 660.4975,-960.6798 680.1756,-935.1676"/>
<polygon fill="#000000" stroke="#000000" points="682.9991,-937.2373 686.3123,-927.1738 677.4466,-932.9747 682.9991,-937.2373"/>
</g>
<!-- serverStretch -->
<g id="node9" class="node">
<title>serverStretch</title>
<polygon fill="none" stroke="#000000" points="433.6465,-913.6697 379.6465,-913.6697 379.6465,-875.6697 433.6465,-875.6697 433.6465,-913.6697"/>
<text text-anchor="middle" x="406.6465" y="-898.4697" font-family="Times,serif" font-size="14.00" fill="#000000">server</text>
<text text-anchor="middle" x="406.6465" y="-883.4697" font-family="Times,serif" font-size="14.00" fill="#000000">stretch</text>
</g>
<!-- authenticationToken&#45;&gt;serverStretch -->
<g id="edge8" class="edge">
<title>authenticationToken&#45;&gt;serverStretch</title>
<path fill="none" stroke="#000000" d="M503.2268,-970.9808C483.8355,-955.6591 458.734,-935.8257 438.9819,-920.2189"/>
<polygon fill="#000000" stroke="#000000" points="440.8927,-917.268 430.8765,-913.8145 436.5529,-922.7604 440.8927,-917.268"/>
</g>
<!-- random -->
<g id="node7" class="node">
<title>random</title>
<polygon fill="none" stroke="#000000" points="290.1465,-1113.3631 231.1465,-1113.3631 231.1465,-1077.3631 290.1465,-1077.3631 290.1465,-1113.3631"/>
<text text-anchor="middle" x="260.6465" y="-1091.6631" font-family="Times,serif" font-size="14.00" fill="#000000">random</text>
</g>
<!-- authenticationSalt -->
<g id="node8" class="node">
<title>authenticationSalt</title>
<ellipse fill="none" stroke="#000000" cx="307.6465" cy="-995.0164" rx="65.5227" ry="26.7407"/>
<text text-anchor="middle" x="307.6465" y="-998.8164" font-family="Times,serif" font-size="14.00" fill="#000000">authentication</text>
<text text-anchor="middle" x="307.6465" y="-983.8164" font-family="Times,serif" font-size="14.00" fill="#000000">salt</text>
</g>
<!-- random&#45;&gt;authenticationSalt -->
<g id="edge7" class="edge">
<title>random&#45;&gt;authenticationSalt</title>
<path fill="none" stroke="#000000" d="M269.267,-1076.958C275.2802,-1064.1195 283.5016,-1046.5667 290.7928,-1030.9996"/>
<polygon fill="#000000" stroke="#000000" points="294.1123,-1032.1639 295.1844,-1021.6235 287.7732,-1029.1948 294.1123,-1032.1639"/>
</g>
<!-- serverWrappedEncryptionKey -->
<g id="node12" class="node">
<title>serverWrappedEncryptionKey</title>
<ellipse fill="none" stroke="#000000" cx="540.6465" cy="-662.1564" rx="52.1524" ry="48.1667"/>
<text text-anchor="middle" x="540.6465" y="-680.9564" font-family="Times,serif" font-size="14.00" fill="#000000">server</text>
<text text-anchor="middle" x="540.6465" y="-665.9564" font-family="Times,serif" font-size="14.00" fill="#000000">wrapped</text>
<text text-anchor="middle" x="540.6465" y="-650.9564" font-family="Times,serif" font-size="14.00" fill="#000000">encryption</text>
<text text-anchor="middle" x="540.6465" y="-635.9564" font-family="Times,serif" font-size="14.00" fill="#000000">key</text>
</g>
<!-- random&#45;&gt;serverWrappedEncryptionKey -->
<g id="edge12" class="edge">
<title>random&#45;&gt;serverWrappedEncryptionKey</title>
<path fill="none" stroke="#000000" d="M290.1938,-1082.181C316.5411,-1069.4186 355.0934,-1048.1673 382.6465,-1021.8864 470.0368,-938.5309 512.1221,-798.4086 529.7684,-719.9101"/>
<polygon fill="#000000" stroke="#000000" points="533.2796,-720.2375 531.9994,-709.7203 526.4416,-718.7403 533.2796,-720.2375"/>
</g>
<!-- userID -->
<g id="node13" class="node">
<title>userID</title>
<ellipse fill="none" stroke="#000000" cx="227.6465" cy="-783.7163" rx="37.0935" ry="18"/>
<text text-anchor="middle" x="227.6465" y="-780.0163" font-family="Times,serif" font-size="14.00" fill="#000000">user ID</text>
</g>
<!-- random&#45;&gt;userID -->
<g id="edge13" class="edge">
<title>random&#45;&gt;userID</title>
<path fill="none" stroke="#000000" d="M251.6926,-1077.1587C245.0311,-1062.5967 236.4602,-1041.4489 232.6465,-1021.8864 218.0975,-947.2579 221.8661,-856.9881 225.1465,-812.029"/>
<polygon fill="#000000" stroke="#000000" points="228.6509,-812.1077 225.9375,-801.8663 221.672,-811.5645 228.6509,-812.1077"/>
</g>
<!-- keyAccessToken -->
<g id="node17" class="node">
<title>keyAccessToken</title>
<ellipse fill="none" stroke="#000000" cx="162.6465" cy="-662.1564" rx="36.125" ry="37.4533"/>
<text text-anchor="middle" x="162.6465" y="-673.4564" font-family="Times,serif" font-size="14.00" fill="#000000">key</text>
<text text-anchor="middle" x="162.6465" y="-658.4564" font-family="Times,serif" font-size="14.00" fill="#000000">access</text>
<text text-anchor="middle" x="162.6465" y="-643.4564" font-family="Times,serif" font-size="14.00" fill="#000000">token</text>
</g>
<!-- random&#45;&gt;keyAccessToken -->
<g id="edge18" class="edge">
<title>random&#45;&gt;keyAccessToken</title>
<path fill="none" stroke="#000000" d="M249.1533,-1077.3244C240.4144,-1062.8537 228.7248,-1041.748 221.6465,-1021.8864 183.4022,-914.5741 169.77,-780.3142 165.0467,-710.0627"/>
<polygon fill="#000000" stroke="#000000" points="168.5191,-709.5181 164.3876,-699.762 161.5334,-709.9651 168.5191,-709.5181"/>
</g>
<!-- authenticationSalt&#45;&gt;serverStretch -->
<g id="edge9" class="edge">
<title>authenticationSalt&#45;&gt;serverStretch</title>
<path fill="none" stroke="#000000" d="M332.373,-969.9535C347.0041,-955.1234 365.5259,-936.3497 380.4131,-921.2599"/>
<polygon fill="#000000" stroke="#000000" points="383.2953,-923.322 387.827,-913.7452 378.3123,-918.4058 383.2953,-923.322"/>
</g>
<!-- authenticationSalt&#45;&gt;serverDatabase -->
<g id="edge38" class="edge">
<title>authenticationSalt&#45;&gt;serverDatabase</title>
<path fill="none" stroke="#000000" d="M302.6308,-968.0984C291.9278,-904.2923 271.3366,-739.7892 316.6465,-614.0732 321.9743,-599.2906 331.5512,-585.1932 341.4074,-573.372"/>
<polygon fill="#000000" stroke="#000000" points="344.2802,-575.4037 348.2269,-565.5714 339.0101,-570.7965 344.2802,-575.4037"/>
</g>
<!-- serverStretchedPassword -->
<g id="node10" class="node">
<title>serverStretchedPassword</title>
<ellipse fill="none" stroke="#000000" cx="406.6465" cy="-783.7163" rx="48.1667" ry="37.4533"/>
<text text-anchor="middle" x="406.6465" y="-795.0163" font-family="Times,serif" font-size="14.00" fill="#000000">server</text>
<text text-anchor="middle" x="406.6465" y="-780.0163" font-family="Times,serif" font-size="14.00" fill="#000000">stretched</text>
<text text-anchor="middle" x="406.6465" y="-765.0163" font-family="Times,serif" font-size="14.00" fill="#000000">password</text>
</g>
<!-- serverStretch&#45;&gt;serverStretchedPassword -->
<g id="edge10" class="edge">
<title>serverStretch&#45;&gt;serverStretchedPassword</title>
<path fill="none" stroke="#000000" d="M406.6465,-875.5961C406.6465,-863.3979 406.6465,-846.9955 406.6465,-831.4259"/>
<polygon fill="#000000" stroke="#000000" points="410.1466,-831.3671 406.6465,-821.3671 403.1466,-831.3672 410.1466,-831.3671"/>
</g>
<!-- verificationHash -->
<g id="node11" class="node">
<title>verificationHash</title>
<ellipse fill="none" stroke="#000000" cx="414.6465" cy="-662.1564" rx="55.7232" ry="26.7407"/>
<text text-anchor="middle" x="414.6465" y="-665.9564" font-family="Times,serif" font-size="14.00" fill="#000000">verification</text>
<text text-anchor="middle" x="414.6465" y="-650.9564" font-family="Times,serif" font-size="14.00" fill="#000000">hash</text>
</g>
<!-- serverStretchedPassword&#45;&gt;verificationHash -->
<g id="edge11" class="edge">
<title>serverStretchedPassword&#45;&gt;verificationHash</title>
<path fill="none" stroke="#000000" d="M409.112,-746.2525C410.0873,-731.4328 411.2061,-714.4333 412.1813,-699.6143"/>
<polygon fill="#000000" stroke="#000000" points="415.6977,-699.4797 412.862,-689.2714 408.7128,-699.0199 415.6977,-699.4797"/>
</g>
<!-- serverWrappingKey -->
<g id="node14" class="node">
<title>serverWrappingKey</title>
<ellipse fill="none" stroke="#000000" cx="658.6465" cy="-662.1564" rx="48.1667" ry="37.4533"/>
<text text-anchor="middle" x="658.6465" y="-673.4564" font-family="Times,serif" font-size="14.00" fill="#000000">server</text>
<text text-anchor="middle" x="658.6465" y="-658.4564" font-family="Times,serif" font-size="14.00" fill="#000000">wrapping</text>
<text text-anchor="middle" x="658.6465" y="-643.4564" font-family="Times,serif" font-size="14.00" fill="#000000">key</text>
</g>
<!-- serverStretchedPassword&#45;&gt;serverWrappingKey -->
<g id="edge14" class="edge">
<title>serverStretchedPassword&#45;&gt;serverWrappingKey</title>
<path fill="none" stroke="#000000" d="M452.3599,-771.3256C493.1815,-759.1588 553.7478,-738.3397 601.6465,-710.2397 607.9418,-706.5465 614.2286,-702.1482 620.2054,-697.5343"/>
<polygon fill="#000000" stroke="#000000" points="622.5373,-700.1504 628.1352,-691.1551 618.1496,-694.6962 622.5373,-700.1504"/>
</g>
<!-- verificationHash&#45;&gt;serverDatabase -->
<g id="edge39" class="edge">
<title>verificationHash&#45;&gt;serverDatabase</title>
<path fill="none" stroke="#000000" d="M405.8683,-635.4796C400.1761,-618.181 392.6908,-595.4331 386.4764,-576.5475"/>
<polygon fill="#000000" stroke="#000000" points="389.717,-575.1981 383.2666,-566.7932 383.0678,-577.3861 389.717,-575.1981"/>
</g>
<!-- serverWrappingKeyXOR -->
<g id="node15" class="node">
<title>serverWrappingKeyXOR</title>
<polygon fill="none" stroke="#000000" points="579.6465,-558.5965 525.6465,-558.5965 525.6465,-522.5965 579.6465,-522.5965 579.6465,-558.5965"/>
<text text-anchor="middle" x="552.6465" y="-536.8965" font-family="Times,serif" font-size="14.00" fill="#000000">XOR</text>
</g>
<!-- serverWrappedEncryptionKey&#45;&gt;serverWrappingKeyXOR -->
<g id="edge15" class="edge">
<title>serverWrappedEncryptionKey&#45;&gt;serverWrappingKeyXOR</title>
<path fill="none" stroke="#000000" d="M545.3892,-614.1127C546.909,-598.7174 548.5414,-582.1807 549.8724,-568.6975"/>
<polygon fill="#000000" stroke="#000000" points="553.368,-568.9144 550.8674,-558.619 546.4018,-568.2267 553.368,-568.9144"/>
</g>
<!-- serverWrappedEncryptionKey&#45;&gt;serverDatabase -->
<g id="edge40" class="edge">
<title>serverWrappedEncryptionKey&#45;&gt;serverDatabase</title>
<path fill="none" stroke="#000000" d="M501.1961,-630.5289C494.0772,-624.9739 486.6819,-619.301 479.6465,-614.0732 458.4897,-598.352 434.4281,-581.446 414.6809,-567.8185"/>
<polygon fill="#000000" stroke="#000000" points="416.4436,-564.7829 406.2211,-561.9985 412.476,-570.5499 416.4436,-564.7829"/>
</g>
<!-- userID&#45;&gt;serverDatabase -->
<g id="edge41" class="edge">
<title>userID&#45;&gt;serverDatabase</title>
<path fill="none" stroke="#000000" d="M229.0037,-765.5334C232.306,-732.329 243.2969,-660.9861 278.6465,-614.0732 296.4525,-590.4426 311.31,-596.2629 334.6465,-578.0732 336.8981,-576.3181 339.1714,-574.4597 341.4302,-572.5463"/>
<polygon fill="#000000" stroke="#000000" points="343.7962,-575.1266 349.0024,-565.8992 339.1782,-569.866 343.7962,-575.1266"/>
</g>
<!-- serverWrappingKey&#45;&gt;serverWrappingKeyXOR -->
<g id="edge16" class="edge">
<title>serverWrappingKey&#45;&gt;serverWrappingKeyXOR</title>
<path fill="none" stroke="#000000" d="M631.3488,-630.8517C613.9584,-610.9085 591.6967,-585.379 575.2901,-566.564"/>
<polygon fill="#000000" stroke="#000000" points="577.8587,-564.1842 568.6485,-558.9475 572.5828,-568.7847 577.8587,-564.1842"/>
</g>
<!-- clientWrappedEncryptionKey -->
<g id="node16" class="node">
<title>clientWrappedEncryptionKey</title>
<ellipse fill="none" stroke="#000000" cx="552.6465" cy="-419.0366" rx="52.1524" ry="48.1667"/>
<text text-anchor="middle" x="552.6465" y="-437.8366" font-family="Times,serif" font-size="14.00" fill="#000000">client</text>
<text text-anchor="middle" x="552.6465" y="-422.8366" font-family="Times,serif" font-size="14.00" fill="#000000">wrapped</text>
<text text-anchor="middle" x="552.6465" y="-407.8366" font-family="Times,serif" font-size="14.00" fill="#000000">encryption</text>
<text text-anchor="middle" x="552.6465" y="-392.8366" font-family="Times,serif" font-size="14.00" fill="#000000">key</text>
</g>
<!-- serverWrappingKeyXOR&#45;&gt;clientWrappedEncryptionKey -->
<g id="edge17" class="edge">
<title>serverWrappingKeyXOR&#45;&gt;clientWrappedEncryptionKey</title>
<path fill="none" stroke="#000000" d="M552.6465,-522.3978C552.6465,-510.331 552.6465,-493.7643 552.6465,-477.4281"/>
<polygon fill="#000000" stroke="#000000" points="556.1466,-477.3285 552.6465,-467.3286 549.1466,-477.3286 556.1466,-477.3285"/>
</g>
<!-- serverEncryptionXOR -->
<g id="node22" class="node">
<title>serverEncryptionXOR</title>
<polygon fill="none" stroke="#000000" points="515.6465,-315.4767 461.6465,-315.4767 461.6465,-279.4767 515.6465,-279.4767 515.6465,-315.4767"/>
<text text-anchor="middle" x="488.6465" y="-293.7767" font-family="Times,serif" font-size="14.00" fill="#000000">XOR</text>
</g>
<!-- clientWrappedEncryptionKey&#45;&gt;serverEncryptionXOR -->
<g id="edge23" class="edge">
<title>clientWrappedEncryptionKey&#45;&gt;serverEncryptionXOR</title>
<path fill="none" stroke="#000000" d="M529.7218,-375.494C520.8362,-358.6169 510.9329,-339.8069 503.077,-324.8855"/>
<polygon fill="#000000" stroke="#000000" points="505.9972,-322.9191 498.2414,-315.7011 499.8032,-326.1802 505.9972,-322.9191"/>
</g>
<!-- clientWrappingKeyXOR -->
<g id="node29" class="node">
<title>clientWrappingKeyXOR</title>
<polygon fill="none" stroke="#000000" points="711.6465,-315.4767 657.6465,-315.4767 657.6465,-279.4767 711.6465,-279.4767 711.6465,-315.4767"/>
<text text-anchor="middle" x="684.6465" y="-293.7767" font-family="Times,serif" font-size="14.00" fill="#000000">XOR</text>
</g>
<!-- clientWrappedEncryptionKey&#45;&gt;clientWrappingKeyXOR -->
<g id="edge34" class="edge">
<title>clientWrappedEncryptionKey&#45;&gt;clientWrappingKeyXOR</title>
<path fill="none" stroke="#000000" d="M589.7671,-384.8519C611.309,-365.0138 637.9639,-340.4671 657.5313,-322.4473"/>
<polygon fill="#000000" stroke="#000000" points="659.9354,-324.9914 664.9204,-315.6426 655.1934,-319.8422 659.9354,-324.9914"/>
</g>
<!-- tokenID -->
<g id="node18" class="node">
<title>tokenID</title>
<ellipse fill="none" stroke="#000000" cx="39.6465" cy="-540.5965" rx="39.7935" ry="18"/>
<text text-anchor="middle" x="39.6465" y="-536.8965" font-family="Times,serif" font-size="14.00" fill="#000000">tokenID</text>
</g>
<!-- keyAccessToken&#45;&gt;tokenID -->
<g id="edge19" class="edge">
<title>keyAccessToken&#45;&gt;tokenID</title>
<path fill="none" stroke="#000000" d="M136.2599,-636.0788C114.759,-614.8296 84.6471,-585.0703 63.7793,-564.4468"/>
<polygon fill="#000000" stroke="#000000" points="66.1153,-561.8346 56.5425,-557.2947 61.1948,-566.8134 66.1153,-561.8346"/>
</g>
<!-- keyRequestToken -->
<g id="node19" class="node">
<title>keyRequestToken</title>
<ellipse fill="none" stroke="#000000" cx="285.6465" cy="-540.5965" rx="39.6962" ry="37.4533"/>
<text text-anchor="middle" x="285.6465" y="-551.8965" font-family="Times,serif" font-size="14.00" fill="#000000">key</text>
<text text-anchor="middle" x="285.6465" y="-536.8965" font-family="Times,serif" font-size="14.00" fill="#000000">request</text>
<text text-anchor="middle" x="285.6465" y="-521.8965" font-family="Times,serif" font-size="14.00" fill="#000000">token</text>
</g>
<!-- keyAccessToken&#45;&gt;keyRequestToken -->
<g id="edge20" class="edge">
<title>keyAccessToken&#45;&gt;keyRequestToken</title>
<path fill="none" stroke="#000000" d="M189.0331,-636.0788C207.0597,-618.2632 231.1392,-594.4656 250.7489,-575.0855"/>
<polygon fill="#000000" stroke="#000000" points="253.3714,-577.4146 258.0237,-567.8959 248.4508,-572.4358 253.3714,-577.4146"/>
</g>
<!-- requestAuthenticationKey -->
<g id="node20" class="node">
<title>requestAuthenticationKey</title>
<ellipse fill="none" stroke="#000000" cx="162.6465" cy="-540.5965" rx="65.5227" ry="37.4533"/>
<text text-anchor="middle" x="162.6465" y="-551.8965" font-family="Times,serif" font-size="14.00" fill="#000000">request</text>
<text text-anchor="middle" x="162.6465" y="-536.8965" font-family="Times,serif" font-size="14.00" fill="#000000">authentication</text>
<text text-anchor="middle" x="162.6465" y="-521.8965" font-family="Times,serif" font-size="14.00" fill="#000000">key</text>
</g>
<!-- keyAccessToken&#45;&gt;requestAuthenticationKey -->
<g id="edge21" class="edge">
<title>keyAccessToken&#45;&gt;requestAuthenticationKey</title>
<path fill="none" stroke="#000000" d="M162.6465,-624.3604C162.6465,-613.0403 162.6465,-600.4728 162.6465,-588.5885"/>
<polygon fill="#000000" stroke="#000000" points="166.1466,-588.3691 162.6465,-578.3691 159.1466,-588.3691 166.1466,-588.3691"/>
</g>
<!-- responseEncryptionKey -->
<g id="node21" class="node">
<title>responseEncryptionKey</title>
<ellipse fill="none" stroke="#000000" cx="429.6465" cy="-419.0366" rx="52.1524" ry="37.4533"/>
<text text-anchor="middle" x="429.6465" y="-430.3366" font-family="Times,serif" font-size="14.00" fill="#000000">response</text>
<text text-anchor="middle" x="429.6465" y="-415.3366" font-family="Times,serif" font-size="14.00" fill="#000000">encryption</text>
<text text-anchor="middle" x="429.6465" y="-400.3366" font-family="Times,serif" font-size="14.00" fill="#000000">key</text>
</g>
<!-- keyRequestToken&#45;&gt;responseEncryptionKey -->
<g id="edge22" class="edge">
<title>keyRequestToken&#45;&gt;responseEncryptionKey</title>
<path fill="none" stroke="#000000" d="M315.4834,-515.4092C336.4291,-497.7275 364.7253,-473.8409 387.9061,-454.2724"/>
<polygon fill="#000000" stroke="#000000" points="390.1696,-456.942 395.5533,-447.8169 385.6542,-451.593 390.1696,-456.942"/>
</g>
<!-- responseAuthenticationKey -->
<g id="node24" class="node">
<title>responseAuthenticationKey</title>
<ellipse fill="none" stroke="#000000" cx="285.6465" cy="-297.4767" rx="65.5227" ry="37.4533"/>
<text text-anchor="middle" x="285.6465" y="-308.7767" font-family="Times,serif" font-size="14.00" fill="#000000">response</text>
<text text-anchor="middle" x="285.6465" y="-293.7767" font-family="Times,serif" font-size="14.00" fill="#000000">authentication</text>
<text text-anchor="middle" x="285.6465" y="-278.7767" font-family="Times,serif" font-size="14.00" fill="#000000">key</text>
</g>
<!-- keyRequestToken&#45;&gt;responseAuthenticationKey -->
<g id="edge26" class="edge">
<title>keyRequestToken&#45;&gt;responseAuthenticationKey</title>
<path fill="none" stroke="#000000" d="M285.6465,-502.8758C285.6465,-460.4689 285.6465,-391.5207 285.6465,-345.3495"/>
<polygon fill="#000000" stroke="#000000" points="289.1466,-345.2858 285.6465,-335.2859 282.1466,-345.2859 289.1466,-345.2858"/>
</g>
<!-- responseEncryptionKey&#45;&gt;serverEncryptionXOR -->
<g id="edge24" class="edge">
<title>responseEncryptionKey&#45;&gt;serverEncryptionXOR</title>
<path fill="none" stroke="#000000" d="M446.8703,-383.5496C455.9964,-364.7468 467.0303,-342.0132 475.4662,-324.6325"/>
<polygon fill="#000000" stroke="#000000" points="478.6391,-326.1108 479.8569,-315.5862 472.3417,-323.0542 478.6391,-326.1108"/>
</g>
<!-- clientEncryptionXOR -->
<g id="node27" class="node">
<title>clientEncryptionXOR</title>
<polygon fill="none" stroke="#000000" points="460.6465,-108 406.6465,-108 406.6465,-72 460.6465,-72 460.6465,-108"/>
<text text-anchor="middle" x="433.6465" y="-86.3" font-family="Times,serif" font-size="14.00" fill="#000000">XOR</text>
</g>
<!-- responseEncryptionKey&#45;&gt;clientEncryptionXOR -->
<g id="edge30" class="edge">
<title>responseEncryptionKey&#45;&gt;clientEncryptionXOR</title>
<path fill="none" stroke="#000000" d="M430.1053,-381.2919C430.9148,-314.7076 432.5788,-177.8272 433.3002,-118.4839"/>
<polygon fill="#000000" stroke="#000000" points="436.8016,-118.3818 433.4235,-108.34 429.8021,-118.2966 436.8016,-118.3818"/>
</g>
<!-- ciphertext -->
<g id="node23" class="node">
<title>ciphertext</title>
<ellipse fill="none" stroke="#000000" cx="359.6465" cy="-184" rx="46.2923" ry="18"/>
<text text-anchor="middle" x="359.6465" y="-180.3" font-family="Times,serif" font-size="14.00" fill="#000000">ciphertext</text>
</g>
<!-- serverEncryptionXOR&#45;&gt;ciphertext -->
<g id="edge25" class="edge">
<title>serverEncryptionXOR&#45;&gt;ciphertext</title>
<path fill="none" stroke="#000000" d="M467.9204,-279.2447C445.7806,-259.7691 410.6123,-228.8328 386.3972,-207.5317"/>
<polygon fill="#000000" stroke="#000000" points="388.4598,-204.6846 378.6397,-200.7077 383.8364,-209.9405 388.4598,-204.6846"/>
</g>
<!-- authenticate -->
<g id="node25" class="node">
<title>authenticate</title>
<polygon fill="none" stroke="#000000" points="357.6465,-108 275.6465,-108 275.6465,-72 357.6465,-72 357.6465,-108"/>
<text text-anchor="middle" x="316.6465" y="-86.3" font-family="Times,serif" font-size="14.00" fill="#000000">authenticate</text>
</g>
<!-- ciphertext&#45;&gt;authenticate -->
<g id="edge27" class="edge">
<title>ciphertext&#45;&gt;authenticate</title>
<path fill="none" stroke="#000000" d="M351.3556,-165.8759C345.05,-152.0915 336.2695,-132.8968 329.1177,-117.2627"/>
<polygon fill="#000000" stroke="#000000" points="332.2546,-115.7062 324.9119,-108.0685 325.889,-118.6182 332.2546,-115.7062"/>
</g>
<!-- ciphertext&#45;&gt;clientEncryptionXOR -->
<g id="edge31" class="edge">
<title>ciphertext&#45;&gt;clientEncryptionXOR</title>
<path fill="none" stroke="#000000" d="M373.2192,-166.759C384.3761,-152.5867 400.3607,-132.2819 413.0876,-116.1153"/>
<polygon fill="#000000" stroke="#000000" points="415.9676,-118.1152 419.4032,-108.0928 410.4675,-113.7853 415.9676,-118.1152"/>
</g>
<!-- responseAuthenticationKey&#45;&gt;authenticate -->
<g id="edge28" class="edge">
<title>responseAuthenticationKey&#45;&gt;authenticate</title>
<path fill="none" stroke="#000000" d="M289.2963,-259.8001C292.5578,-228.6403 297.865,-183.2893 304.6465,-144 306.0936,-135.6157 307.9763,-126.5672 309.8198,-118.3185"/>
<polygon fill="#000000" stroke="#000000" points="313.2686,-118.9378 312.0981,-108.4079 306.4466,-117.3695 313.2686,-118.9378"/>
</g>
<!-- MAC -->
<g id="node26" class="node">
<title>MAC</title>
<ellipse fill="none" stroke="#000000" cx="316.6465" cy="-18" rx="31.3957" ry="18"/>
<text text-anchor="middle" x="316.6465" y="-14.3" font-family="Times,serif" font-size="14.00" fill="#000000">MAC</text>
</g>
<!-- authenticate&#45;&gt;MAC -->
<g id="edge29" class="edge">
<title>authenticate&#45;&gt;MAC</title>
<path fill="none" stroke="#000000" d="M316.6465,-71.8314C316.6465,-64.131 316.6465,-54.9743 316.6465,-46.4166"/>
<polygon fill="#000000" stroke="#000000" points="320.1466,-46.4132 316.6465,-36.4133 313.1466,-46.4133 320.1466,-46.4132"/>
</g>
<!-- clientEncryptionXOR&#45;&gt;clientWrappedEncryptionKey -->
<g id="edge32" class="edge">
<title>clientEncryptionXOR&#45;&gt;clientWrappedEncryptionKey</title>
<path fill="none" stroke="#000000" d="M446.093,-108.469C465.8982,-138.7538 504.4095,-201.4684 524.6465,-260 535.8811,-292.4941 542.7775,-330.3527 546.914,-360.979"/>
<polygon fill="#000000" stroke="#000000" points="543.4648,-361.5988 548.2132,-371.0699 550.4075,-360.7048 543.4648,-361.5988"/>
</g>
<!-- clientWrappingKey&#45;&gt;clientWrappingKeyXOR -->
<g id="edge35" class="edge">
<title>clientWrappingKey&#45;&gt;clientWrappingKeyXOR</title>
<path fill="none" stroke="#000000" d="M716.8895,-857.3404C724.0006,-811.5115 734.6465,-731.3476 734.6465,-662.1564 734.6465,-662.1564 734.6465,-662.1564 734.6465,-540.5965 734.6465,-461.041 708.6423,-369.7886 694.1407,-325.0857"/>
<polygon fill="#000000" stroke="#000000" points="697.439,-323.9118 690.979,-315.5142 690.7922,-326.1074 697.439,-323.9118"/>
</g>
<!-- encryptionKey -->
<g id="node30" class="node">
<title>encryptionKey</title>
<polygon fill="none" stroke="#000000" points="731.9354,-169.0883 731.9354,-198.9117 704.2342,-220 665.0588,-220 637.3575,-198.9117 637.3575,-169.0883 665.0588,-148 704.2342,-148 731.9354,-169.0883"/>
<polygon fill="none" stroke="#000000" points="735.9472,-167.1098 735.9472,-200.8902 705.5907,-224 663.7023,-224 633.3457,-200.8902 633.3457,-167.1098 663.7023,-144 705.5907,-144 735.9472,-167.1098"/>
<text text-anchor="middle" x="684.6465" y="-187.8" font-family="Times,serif" font-size="14.00" fill="#000000">encryption</text>
<text text-anchor="middle" x="684.6465" y="-172.8" font-family="Times,serif" font-size="14.00" fill="#000000">key</text>
</g>
<!-- clientWrappingKeyXOR&#45;&gt;encryptionKey -->
<g id="edge36" class="edge">
<title>clientWrappingKeyXOR&#45;&gt;encryptionKey</title>
<path fill="none" stroke="#000000" d="M684.6465,-279.2447C684.6465,-267.1159 684.6465,-250.5421 684.6465,-234.6188"/>
<polygon fill="#000000" stroke="#000000" points="688.1466,-234.3021 684.6465,-224.3022 681.1466,-234.3022 688.1466,-234.3021"/>
</g>
</g>
</svg>
